<svg viewBox="0 0 2834 500" xmlns="http://www.w3.org/2000/svg" xml:space="preserve" fill-rule="evenodd" clip-rule="evenodd" stroke-linejoin="round" stroke-miterlimit="2"><path fill="none" d="M0 0h2833.3v500H0z"/><path d="M485.5 426.4a461 461 0 0 1-40.4 13.2c-7 1.9-14.3 3.2-22 4a158.8 158.8 0 0 1-65.2-4 608.6 608.6 0 0 1-88-32.8c-14.4-6.7-27.8-13-40-19.2a962.9 962.9 0 0 0-31.2-14.4c-8-3.7-16.6-6.7-25.6-8.8l-26.8-6a130 130 0 0 1-60.4-29.6 130.9 130.9 0 0 1-33.6-52c-7-20.3-10.4-42.1-10.4-65.6 0-20 2.5-39 7.6-56.8a145 145 0 0 1 24-48 111.4 111.4 0 0 1 40.4-33.2c16.2-8 35.3-12 57.2-12a122 122 0 0 1 56.8 12.4c16.2 8 29.7 19 40.4 33.2a139.3 139.3 0 0 1 23.6 48 201.6 201.6 0 0 1 0 112.8 142.3 142.3 0 0 1-25.6 49.2 111.7 111.7 0 0 1-45.6 34l2.8 1.2 3.2 1.6c5.8 3 14 7 24.4 12.4a1016 1016 0 0 0 36.4 17.2 611 611 0 0 0 85.2 30.8c14.1 3.7 26.9 5.6 38.4 5.6 5.6 0 12.5-.7 20.8-2a462.4 462.4 0 0 0 47.2-10.4l6.4 19.2ZM171 333.6a81 81 0 0 0 42.4-10.4 82.8 82.8 0 0 0 27.6-28.4c7.2-12 12.2-25.2 15.2-39.6a205.9 205.9 0 0 0 0-87.6c-3-14.4-8-27.5-15.2-39.2-7-12-16.2-21.5-27.6-28.4A78.2 78.2 0 0 0 171 89.2a78 78 0 0 0-42.4 10.8 81.7 81.7 0 0 0-27.6 28.8c-7 11.7-12 24.8-15.2 39.2a217.8 217.8 0 0 0 0 86.8c3.2 14.4 8.2 27.6 15.2 39.6a82.7 82.7 0 0 0 27.6 28.4 78.2 78.2 0 0 0 42.4 10.8Z" fill-rule="nonzero"/><path d="m495.9 63.6 8.4 18.8a219.2 219.2 0 0 0-60 35.6 198.2 198.2 0 0 0-62.4 94 90.7 90.7 0 0 1 53.6-17.6c17 0 31.2 3.7 42.4 11.2A68.1 68.1 0 0 1 503 234a82.8 82.8 0 0 1 8.4 36.8c0 11-2 21.9-6 32.8a91.6 91.6 0 0 1-16.8 29.2 82.9 82.9 0 0 1-28 21.2 93.3 93.3 0 0 1-38.8 7.6 82.5 82.5 0 0 1-74-43.6c-8-14.7-12-33.2-12-55.6 0-23.7 4.4-46.1 13.2-67.2a209 209 0 0 1 36-57.6 255.3 255.3 0 0 1 110.8-74Zm-120 175.6c-1.1 7.5-1.6 14.7-1.6 21.6 0 14.1 2 27 6 38.4a66.9 66.9 0 0 0 17.6 27.2c7.7 6.7 16.8 10 27.2 10 10.4 0 19.2-3 26.4-8.8a52.5 52.5 0 0 0 16-22.4 73.9 73.9 0 0 0 .4-54.8 48.9 48.9 0 0 0-15.6-20.8c-6.7-5.3-15.4-8-26-8-8.8 0-18 1.7-27.6 5.2a98 98 0 0 0-22.8 12.4ZM716.7 92.8h-86.4V65.2h212v27.6h-87.6v263.6h-38V92.8Zm197.2 60c16 0 29.4 3.3 40.4 10a59 59 0 0 1 24.4 27.2 91 91 0 0 1 7.6 52 229 229 0 0 1-1.2 12H858.7c0 25.3 5.6 45 16.8 58.8a54.7 54.7 0 0 0 44.8 20.8 86 86 0 0 0 24-3.6c8.5-2.4 17.3-6 26.4-10.8l12.4 20a97.3 97.3 0 0 1-31.6 16.8 116.8 116.8 0 0 1-35.6 5.6 94.7 94.7 0 0 1-41.2-8.4 87.8 87.8 0 0 1-28.8-23.2 105 105 0 0 1-16.8-33.2 135.2 135.2 0 0 1 0-76.4 108 108 0 0 1 16.8-34 81.2 81.2 0 0 1 68-33.6Zm-3.2 25.2c-9.1 0-17.1 2.5-24 7.6-7 5-12.6 11.6-16.8 19.6a81.5 81.5 0 0 0-8.8 24h91.2a62.8 62.8 0 0 0-4.8-28c-3.2-7.7-8-13.5-14.4-17.2-6.2-4-13.6-6-22.4-6Zm202.3-25.2a109.6 109.6 0 0 1 60.9 20.4l-18 23.2a77.7 77.7 0 0 0-22-13.2 55 55 0 0 0-20.8-4.4c-8 0-15.5 1.9-22.4 5.6-6.7 3.7-12.7 9-18 16a76.2 76.2 0 0 0-12 24.4c-2.7 9.6-4 20.3-4 32 0 25 5.6 44.3 16.8 57.6a54.6 54.6 0 0 0 43.2 20c7.7 0 15.2-1.2 22.4-3.6a129 129 0 0 0 23.2-10.4l10.8 21.2a141 141 0 0 1-30.8 14.8c-9.9 3.5-21 5.2-33.2 5.2a82.9 82.9 0 0 1-45.6-12.8 91.7 91.7 0 0 1-31.2-37.2c-7.5-16-11.2-34.8-11.2-56.4a111 111 0 0 1 12.4-54 92.2 92.2 0 0 1 33.6-35.6 87.4 87.4 0 0 1 46-12.8Zm136-101.2v129.6c8.6-8 17.8-14.8 27.7-20.4a65.3 65.3 0 0 1 32.8-8.4c14.6 0 26.4 3 35.2 9.2a52.2 52.2 0 0 1 19.2 25.2c4 10.4 6 22.5 6 36.4v133.2H1337V234c0-8.3-.7-16.3-2-24-1.1-8-3.9-14.7-8.4-20-4.6-5.3-12.2-8-22.8-8-6.7 0-13.4 1.3-20 4-6.4 2.7-12.6 6-18.4 10-5.9 4-11.4 8.1-16.4 12.4v148h-32.8V75.2l-5.2-23.6h38Zm208.5 102.8a104.5 104.5 0 0 1 7.6 28.4c8-8 17.4-15 28.4-20.8a68 68 0 0 1 33.6-9.2c14.6 0 26.4 3 35.2 9.2 9 6.1 15.6 14.5 19.6 25.2 4 10.4 6 22.5 6 36.4v132.8H1555v-122c0-8.3-.7-16.4-2-24.4-1.1-8-4-14.5-8.8-19.6-4.6-5.3-12.2-8-22.8-8-6.4 0-13 1.3-19.6 4-6.7 2.4-13 5.6-18.8 9.6a130 130 0 0 0-16 12.8v147.6h-32.8V215.6a162.7 162.7 0 0 0-5.2-39.2 49 49 0 0 0-8-17.2l36.4-4.8ZM1727 361.6a82 82 0 0 1-49.1-14.4 91.8 91.8 0 0 1-29.6-38.4 132.5 132.5 0 0 1-3.6-89.2c4-12.8 9.8-24.1 17.6-34a84.9 84.9 0 0 1 28.4-24 84 84 0 0 1 38.8-8.8 80.9 80.9 0 0 1 78.8 52.4 130 130 0 0 1 10 50.8c0 13.6-2 26.8-6 39.6-4 12.5-9.9 23.7-17.6 33.6a81.7 81.7 0 0 1-67.6 32.4Zm.5-25.2c10.4 0 19-2.4 26-7.2 7.2-5 12.9-11.6 17.2-19.6 4.5-8 7.7-16.5 9.6-25.6a132.7 132.7 0 0 0 0-53.6 87.5 87.5 0 0 0-8.4-25.6c-4-8-9.6-14.4-16.8-19.2-7-5-15.6-7.6-26-7.6a44.7 44.7 0 0 0-26.4 7.6 53.5 53.5 0 0 0-16.8 19.2c-4.3 8-7.4 16.7-9.2 26a130.8 130.8 0 0 0 0 52.8 102 102 0 0 0 8.8 25.6c4.2 8 9.8 14.5 16.8 19.6 6.9 5 15.3 7.6 25.2 7.6Zm175.2-284.8v304.8h-33.2V74.8l-5.2-23.2h38.4Zm139.6 310a82 82 0 0 1-49.2-14.4 91.8 91.8 0 0 1-29.6-38.4 132.5 132.5 0 0 1-3.6-89.2c4-12.8 9.8-24.1 17.6-34a84.9 84.9 0 0 1 28.4-24 84 84 0 0 1 38.8-8.8 80.9 80.9 0 0 1 78.8 52.4 130 130 0 0 1 10 50.8c0 13.6-2 26.8-6 39.6-4 12.5-9.9 23.7-17.6 33.6a81.7 81.7 0 0 1-67.6 32.4Zm.4-25.2c10.4 0 19-2.4 26-7.2 7.2-5 12.9-11.6 17.2-19.6 4.5-8 7.7-16.5 9.6-25.6a132.7 132.7 0 0 0 0-53.6 87.5 87.5 0 0 0-8.4-25.6c-4-8-9.6-14.4-16.8-19.2-7-5-15.6-7.6-26-7.6a44.7 44.7 0 0 0-26.4 7.6 53.5 53.5 0 0 0-16.8 19.2c-4.3 8-7.4 16.7-9.2 26a130.8 130.8 0 0 0 0 52.8 102 102 0 0 0 8.8 25.6c4.2 8 9.8 14.5 16.8 19.6 6.9 5 15.3 7.6 25.2 7.6ZM2239 152.8c7.8 0 15.1 1 22 2.8a87.3 87.3 0 0 0 22 2.8c10.2 0 20.5-.5 30.9-1.6l32.8-4.4-7.2 28.8h-38l-5.6-.8a66.2 66.2 0 0 1 10 19.2 59.8 59.8 0 0 1 3.6 20.4c0 13.3-3 25.3-8.8 36a62.4 62.4 0 0 1-26 25.2 88 88 0 0 1-41.2 8.8 30 30 0 0 0-17.6 5.2c-5.1 3.5-7.6 8.8-7.6 16 0 4.8 1.2 8.3 3.6 10.4 2.6 1.9 5.8 3 9.6 3.2 3.7.3 7.4.4 11.2.4h38.8c6.9 0 14 .5 21.2 1.6a64 64 0 0 1 20.4 5.6c6.1 2.7 11 6.8 14.8 12.4a36 36 0 0 1 6 22 76 76 0 0 1-8.8 37.6 71.3 71.3 0 0 1-23.6 25.2 100 100 0 0 1-33.2 14.4c-12.3 3-24.7 4.4-37.2 4.4-7.5 0-15.4-1-23.6-2.8a83.2 83.2 0 0 1-23.6-8.4 48 48 0 0 1-17.6-15.2 40.5 40.5 0 0 1-6.8-24c0-10.1 3-19 9.2-26.8a96 96 0 0 1 22-19.6v-1.2c-5.9-3-10.6-7-14-12-3.2-5.3-4.8-11-4.8-16.8a14 14 0 0 1 4-9.6l10-12.4c4.2-5 8.8-12 13.6-20.8a72.7 72.7 0 0 1-22.4-24.4 66 66 0 0 1-8.4-32.4 66 66 0 0 1 9.6-35.2 71.3 71.3 0 0 1 60.8-34Zm.5 24c-6.4 0-12.4 2-18 6a46.2 46.2 0 0 0-18 38.8c0 8.5 1.6 16.3 4.8 23.2 3.2 6.7 7.4 12 12.8 16 5.6 4 11.6 6 18 6 10.9 0 19.6-4.1 26-12.4a50 50 0 0 0 10-32.4c0-8.5-1.8-16.1-5.2-22.8a42 42 0 0 0-12.8-16.4c-5.4-4-11.2-6-17.6-6Zm-25.2 180a57.5 57.5 0 0 0-14 15.2c-4.3 6.7-6.4 13-6.4 19.2a22 22 0 0 0 6.8 16.4 59 59 0 0 0 36.4 13.6c6.9 0 14.2-.8 22-2.4a81.3 81.3 0 0 0 21.6-6.8 41 41 0 0 0 16-13.2 32.7 32.7 0 0 0 6.4-20.4c0-7-2.2-12-6.4-15.2a35 35 0 0 0-16-5.6c-6.2-.5-12.3-.8-18.4-.8h-48Zm201.6-266c0 6.7-2.4 12.4-7.2 17.2a22.6 22.6 0 0 1-17.2 7.2c-6.7 0-12.4-2.4-17.2-7.2a24.2 24.2 0 0 1-6.8-17.2c0-6.7 2.2-12.4 6.8-17.2a23.5 23.5 0 0 1 17.2-7.2c6.6 0 12.4 2.4 17.2 7.2a23.5 23.5 0 0 1 7.2 17.2Zm-7.2 66.8v198.8h-33.2V181.2l-4.8-23.6h38Zm141.6-4.8c16 0 29.4 3.3 40.4 10A59 59 0 0 1 2615 190a91 91 0 0 1 7.6 52 229 229 0 0 1-1.2 12H2495c0 25.3 5.6 45 16.8 58.8a54.7 54.7 0 0 0 44.8 20.8 86 86 0 0 0 24-3.6c8.5-2.4 17.3-6 26.4-10.8l12.4 20a97.3 97.3 0 0 1-31.6 16.8 116.8 116.8 0 0 1-35.6 5.6 94.7 94.7 0 0 1-41.2-8.4 87.8 87.8 0 0 1-28.8-23.2 105 105 0 0 1-16.8-33.2 135.2 135.2 0 0 1 0-76.4 108 108 0 0 1 16.8-34 81.2 81.2 0 0 1 68-33.6ZM2547 178c-9.1 0-17.1 2.5-24 7.6-7 5-12.6 11.6-16.8 19.6a81.5 81.5 0 0 0-8.8 24h91.2a62.8 62.8 0 0 0-4.8-28c-3.2-7.7-8-13.5-14.4-17.2-6.2-4-13.6-6-22.4-6Zm190.5-25.2c9 0 18 1.2 26.8 3.6a79 79 0 0 1 24.8 10.4l-11.6 25.6a66.8 66.8 0 0 0-40.8-14.4c-9.9 0-18.6 2.3-26 6.8a22.5 22.5 0 0 0-10.8 20.4c0 6.4 1.4 11.7 4.4 16 3.2 4.3 7.3 7.9 12.4 10.8 5 3 10.5 5.9 16.4 8.8 6.6 3.2 13.3 6.5 20 10a81.3 81.3 0 0 1 18.8 12 50.3 50.3 0 0 1 19.6 40.8c0 13.3-3.4 24.4-10 33.2a55.6 55.6 0 0 1-25.6 18.8 94 94 0 0 1-34 6 121.7 121.7 0 0 1-61.6-16.8l14-24.4a83.9 83.9 0 0 0 21.6 11.6c8 3 15.7 4.4 23.2 4.4a48 48 0 0 0 26.4-7.2c7.7-4.8 11.6-12 11.6-21.6 0-6.7-2.2-12.1-6.4-16.4-4-4.5-9.2-8.5-15.6-12s-13.1-6.8-20-10c-8-4-15.9-8.3-23.6-12.8a62.3 62.3 0 0 1-18.4-18 48.8 48.8 0 0 1-7.2-27.6c0-12.8 3.3-23.5 10-32 6.9-8.5 15.8-15 26.8-19.2a90 90 0 0 1 34.8-6.8Z" fill-rule="nonzero"/></svg>
