<?xml version="1.0" encoding="UTF-8" standalone="no"?><!DOCTYPE svg PUBLIC "-//W3C//DTD SVG 1.1//EN" "http://www.w3.org/Graphics/SVG/1.1/DTD/svg11.dtd"><svg width="100%" height="100%" viewBox="0 0 1067 1067" version="1.1" xmlns="http://www.w3.org/2000/svg" xmlns:xlink="http://www.w3.org/1999/xlink" xml:space="preserve" xmlns:serif="http://www.serif.com/" style="fill-rule:evenodd;clip-rule:evenodd;stroke-linejoin:round;stroke-miterlimit:2;"><rect id="Artboard2" x="0" y="-0" width="1066.67" height="1066.67" style="fill:none;"/><path d="M1033.33,279.71l0,507.247c0,135.979 -110.397,246.376 -246.376,246.376l-507.247,0c-135.979,0 -246.377,-110.397 -246.377,-246.376l0,-507.247c0,-135.979 110.398,-246.377 246.377,-246.377l507.247,0c135.979,0 246.376,110.398 246.376,246.377Z" style="fill:#fff;"/><path d="M878.262,861.119c-11.454,4.405 -22.687,8.37 -33.7,11.894c-10.573,3.964 -21.586,7.268 -33.039,9.912c-11.454,3.083 -23.568,5.286 -36.343,6.607c-12.775,1.762 -26.872,2.643 -42.29,2.643c-19.824,0 -41.63,-3.083 -65.418,-9.25c-23.788,-6.168 -48.017,-14.097 -72.686,-23.789c-24.669,-9.251 -48.898,-19.383 -72.686,-30.396c-23.788,-11.013 -45.814,-21.585 -66.078,-31.717c-20.264,-9.692 -37.445,-17.621 -51.541,-23.788c-13.216,-6.168 -27.313,-11.013 -42.29,-14.538c-14.978,-3.524 -29.735,-6.828 -44.273,-9.911c-40.968,-9.251 -74.228,-25.551 -99.778,-48.898c-25.11,-23.788 -43.611,-52.422 -55.505,-85.902c-11.454,-33.479 -17.181,-69.602 -17.181,-108.368c0,-33.039 4.185,-64.316 12.555,-93.831c8.81,-29.956 22.026,-56.387 39.647,-79.294c17.621,-23.348 39.867,-41.629 66.739,-54.845c26.872,-13.216 58.369,-19.823 94.492,-19.823c36.123,-0 67.4,6.828 93.831,20.484c26.872,13.215 49.118,31.497 66.739,54.845c17.621,22.907 30.616,49.338 38.986,79.294c8.81,29.515 13.216,60.571 13.216,93.17c-0,31.717 -4.406,62.774 -13.216,93.17c-8.81,29.956 -22.907,57.048 -42.29,81.276c-18.942,24.229 -44.052,42.951 -75.329,56.167c1.321,0.44 2.863,1.101 4.625,1.982l5.287,2.643c9.691,4.846 23.127,11.674 40.307,20.485c17.621,8.81 37.665,18.281 60.131,28.413c22.467,10.132 45.815,19.603 70.043,28.414c24.229,9.251 47.797,16.74 70.704,22.466c23.348,6.168 44.493,9.251 63.435,9.251c9.251,0 20.705,-1.101 34.361,-3.304c13.656,-2.202 27.532,-4.845 41.629,-7.929c14.097,-3.084 26.211,-6.167 36.343,-9.251l10.573,31.718Zm-519.375,-153.302c27.753,0 51.1,-5.727 70.043,-17.18c18.942,-11.894 34.14,-27.533 45.594,-46.916c11.894,-19.823 20.264,-41.629 25.109,-65.417c5.287,-24.229 7.93,-48.457 7.93,-72.686c-0,-24.229 -2.643,-48.237 -7.93,-72.025c-4.845,-23.789 -13.215,-45.374 -25.109,-64.757c-11.454,-19.824 -26.652,-35.462 -45.594,-46.916c-18.943,-11.894 -42.29,-17.841 -70.043,-17.841c-27.753,0 -51.101,5.947 -70.043,17.841c-18.943,11.894 -34.141,27.753 -45.594,47.577c-11.454,19.383 -19.824,40.968 -25.11,64.756c-4.846,23.789 -7.268,47.797 -7.268,72.026c-0,23.788 2.422,47.576 7.268,71.364c5.286,23.788 13.656,45.594 25.11,65.418c11.453,19.383 26.651,35.021 45.594,46.915c18.942,11.894 42.29,17.841 70.043,17.841Z" style="fill-rule:nonzero;"/><path d="M895.442,261.789l13.876,31.057c-38.765,15.859 -71.805,35.462 -99.117,58.81c-27.312,23.347 -49.338,48.457 -66.078,75.329c-16.74,26.431 -29.075,53.083 -37.004,79.954c11.454,-8.369 23.788,-14.977 37.004,-19.823c17.621,-6.167 34.801,-9.251 51.541,-9.251c28.193,0 51.541,6.167 70.043,18.502c18.502,11.894 32.378,27.533 41.629,46.915c9.251,18.943 13.876,39.207 13.876,60.792c0,18.062 -3.303,36.123 -9.911,54.185c-6.168,17.62 -15.418,33.699 -27.753,48.237c-12.335,14.537 -27.753,26.211 -46.255,35.021c-18.502,8.37 -39.867,12.555 -64.096,12.555c-24.228,-0 -47.356,-5.947 -69.382,-17.841c-21.585,-11.894 -39.206,-29.956 -52.862,-54.184c-13.216,-24.229 -19.824,-54.845 -19.824,-91.849c0,-39.206 7.269,-76.21 21.806,-111.011c14.537,-34.802 34.361,-66.519 59.47,-95.153c25.11,-28.634 53.303,-53.303 84.58,-74.008c31.718,-21.145 64.537,-37.224 98.457,-48.237Zm-198.235,290.084c-1.762,12.334 -2.643,24.228 -2.643,35.682c0,23.348 3.304,44.493 9.912,63.435c7.048,18.942 16.74,33.92 29.074,44.933c12.775,11.013 27.753,16.52 44.934,16.52c17.18,-0 31.717,-4.846 43.611,-14.538c11.894,-9.691 20.705,-22.026 26.431,-37.003c6.168,-14.978 9.251,-30.617 9.251,-46.916c0,-15.418 -2.863,-29.955 -8.59,-43.611c-5.727,-14.097 -14.317,-25.551 -25.77,-34.361c-11.013,-8.811 -25.33,-13.216 -42.951,-13.216c-14.537,0 -29.735,2.864 -45.594,8.59c-12.775,4.846 -25.33,11.674 -37.665,20.485Z" style="fill-rule:nonzero;"/></svg>