<svg viewBox="0 0 100 101" xmlns="http://www.w3.org/2000/svg" xml:space="preserve" fill-rule="evenodd" clip-rule="evenodd" stroke-linejoin="round" stroke-miterlimit="2"><path d="M99.79 75.83a9.85 9.85 0 1 1-19-3.7L52.6 55.85a11.61 11.61 0 0 1-7.71 4.29v20.24a9.86 9.86 0 1 1-2.74 0V60.14a11.4 11.4 0 0 1-4.97-1.8l-9.3 11.17a9.87 9.87 0 1 1-2.1-1.74l9.3-11.18A11.65 11.65 0 0 1 32 50.32l-12.39.04a9.86 9.86 0 1 1 0-2.73l12.3-.04c.48-5.5 4.75-9.91 10.24-10.57v-17.4a9.86 9.86 0 1 1 2.73 0v17.4c1.92.23 3.75.93 5.33 2.05l17.34-19.3a9.85 9.85 0 1 1 2.03 1.83L52.25 40.9a11.61 11.61 0 0 1 1.8 12.63l28.12 16.24a9.85 9.85 0 0 1 17.62 6.07Z" fill-rule="nonzero"/></svg>
